<svg class="hands" xmlns="http://www.w3.org/2000/svg" viewBox="0 0 160 160">
  <style>
    .right {
      transform-origin: 50% 50%;
      animation: right .6s cubic-bezier(0.4, 0, 0.4, 1) infinite;
    }

    .left {
      transform-origin: 50% 50%;
      animation: left .6s cubic-bezier(0.4, 0, 0.4, 1) infinite;
    }

    @keyframes right {
      0% {
        transform: translate(-10px, 0px) rotate(0deg);
      }
      50% {
        transform: translate(10px, -15px) rotate(10deg);
      }
      100% {
        transform: translate(-10px, 0px) rotate(0deg);
      }
    }

    @keyframes left {
      0% {
        transform: translate(-10px, 0px) rotate(0deg);
      }
      50% {
        transform: translate(-10px, 15px) rotate(-10deg);
      }
      100% {
        transform: translate(-10px, 0px) rotate(0deg);
      }
  </style>



    <g class="right">
      <path fill="#EEBD4B" d="M87.227 55.068c-5.615-8.999 3.226-11.263 3.226-11.263 5.464 7.425 14.564 15.652 18.333 19.235 4.711 4.478 11.494 12.411 5.11 28.896-4.598 11.873-18.062 17.27-27.953 13.439-9.89-3.83-24.015-12.344-41.595-14.97 0 0-2.52-8.18 4.181-7.86 4.467.214 14.68 3.537 19.23 5.172 0 0-17.495-8.67-28.152-10.523.009-.004-.59-8.266 5.297-7.806 5.888.46 26.227 8.64 26.227 8.64s-16.78-9.53-31.596-13.37c0 0-.69-8.988 7.734-7.243 4.163.863 27.693 10.723 27.693 10.723l-24.29-11.68s-1.214-6.462 5.244-6.691c6.446-.229 22.276 10.872 39.726 14.642-1.113-.323-5.101-4.03-8.415-9.341Z"/>
      <path fill="#121212" fill-rule="evenodd" d="M95.642 64.41c-.433-.127-1.301-.764-2.395-1.81-1.574-1.503-3.616-3.849-5.505-6.727a41.767 41.767 0 0 1-.515-.805c-2.098-3.363-2.178-5.786-1.454-7.5.073-.173.153-.339.241-.497 1.375-2.482 4.439-3.266 4.439-3.266 4.8 6.523 12.407 13.666 16.74 17.734.599.562 1.135 1.066 1.593 1.501 4.711 4.478 11.494 12.411 5.11 28.896-4.598 11.873-18.062 17.27-27.953 13.439-2.645-1.024-5.594-2.384-8.83-3.876-8.864-4.087-19.887-9.17-32.765-11.094 0 0-1.074-3.488.046-5.819.595-1.24 1.81-2.152 4.135-2.04 4.467.213 14.68 3.536 19.23 5.171 0 0-9.727-4.82-19.093-8.04a89.599 89.599 0 0 0-3.281-1.063 64.144 64.144 0 0 0-2.614-.73 41.785 41.785 0 0 0-3.164-.69l-.002-.036c-.015-.347-.139-3.147.928-5.291a5.82 5.82 0 0 1 .309-.548l.033-.051c.781-1.189 2.032-2.036 4.03-1.88 5.887.46 26.226 8.64 26.226 8.64s-12.85-7.297-25.988-11.694a84.942 84.942 0 0 0-5.608-1.677l-.005-.085c-.026-.534-.09-3.441 1.439-5.444.064-.083.13-.165.2-.246.771-.89 1.9-1.557 3.547-1.674a8.463 8.463 0 0 1 1.654.056h.003c.286.037.585.087.896.151.55.114 1.44.386 2.57.772 7.41 2.528 25.123 9.95 25.123 9.95l-24.29-11.68s-.422-2.244.553-4.134c.68-1.317 2.039-2.462 4.69-2.556 2.985-.106 7.98 2.216 14.214 5.114 4.117 1.914 8.773 4.079 13.749 5.962 2.858 1.082 5.82 2.071 8.846 2.866.967.255 1.94.489 2.918.7ZM45.214 51.19c.534-1.611 1.544-3.469 3.4-4.96 1.984-1.593 4.434-2.366 7.09-2.46 3.014-.107 6.28 1.031 8.917 2.088 2.432.975 5.212 2.268 8.067 3.595l1.487.69c1.795.832 3.644 1.679 5.537 2.507a12.958 12.958 0 0 1-.348-3.299c.083-3.105 1.344-5.548 2.893-7.284 1.468-1.646 3.158-2.631 4.323-3.186a14.942 14.942 0 0 1 2.07-.802 9.516 9.516 0 0 1 .256-.073l.031-.008.014-.003.007-.002c.003-.001.006-.002 1.495 5.81l-1.489-5.812a6 6 0 0 1 6.321 2.256c4.44 6.033 11.573 12.74 15.962 16.866.617.58 1.179 1.108 1.673 1.577 2.588 2.461 6.34 6.407 8.291 12.45 1.989 6.157 1.869 13.695-1.72 22.962-5.75 14.847-22.62 21.939-35.715 16.867-2.676-1.036-5.583-2.367-8.544-3.731l-.617-.285c-2.827-1.303-5.773-2.662-8.916-3.987-6.73-2.836-14.14-5.419-22.237-6.628a6 6 0 0 1-4.848-4.168l5.734-1.766c-5.734 1.766-5.734 1.764-5.735 1.762l-.002-.005-.002-.01-.007-.02-.015-.053-.042-.143c-.03-.11-.07-.254-.112-.426a18.83 18.83 0 0 1-.286-1.358c-.181-1.047-.371-2.658-.189-4.415.079-.758.24-1.674.573-2.64a6 6 0 0 1-4.922-5.722l-.001-.032a20.163 20.163 0 0 1 .01-1.725c.05-1.038.201-2.567.674-4.185a13.44 13.44 0 0 1 1.013-2.52 5.996 5.996 0 0 1-1.752-3.797l5.797-.445c-5.797.445-5.797.443-5.798.44v-.017l-.003-.027-.004-.064a13.567 13.567 0 0 1-.023-.668 16.91 16.91 0 0 1 .057-1.545c.098-1.186.365-2.965 1.16-4.796.813-1.874 2.305-4.07 4.945-5.477 1.714-.914 3.587-1.322 5.53-1.325ZM33.612 77.43v-.003Z" clip-rule="evenodd"/>
    </g>


    <g class="left">
      <path fill="#EEBD4B" d="M110.5 77.038c-1.5-10.5 7.502-9 7.502-9C120 77.038 125 88.241 127 93.041c2.5 6 5.5 15.997-7 28.497-9.003 9.003-23.5 8.5-31 1s-16.98-20.995-32-30.5c0 0 1-8.5 7-5.5 4 2 12 9.166 15.5 12.5 0 0-12.5-15-21.5-21 .01 0 2.8-7.8 8-5s20.5 18.5 20.5 18.5S75 76.04 63 66.54c0 0 3-8.5 10-3.5 3.46 2.471 21 20.997 21 20.997L76.5 63.539s1.5-6.401 7.5-4.001c5.99 2.396 15.984 18.946 30.423 29.444-.887-.745-3.038-5.746-3.923-11.944Z"/>
      <path fill="#121212" fill-rule="evenodd" d="M114.423 88.982c-.345-.29-.881-1.223-1.46-2.621-.832-2.011-1.752-4.983-2.317-8.378a38.325 38.325 0 0 1-.146-.945c-.561-3.924.346-6.172 1.7-7.45a5.36 5.36 0 0 1 .422-.355c2.26-1.715 5.38-1.195 5.38-1.195 1.755 7.907 5.828 17.514 8.147 22.986.321.756.608 1.434.851 2.017 2.5 6 5.5 15.997-7 28.497-9.003 9.003-23.5 8.5-31 1-2.006-2.006-4.154-4.441-6.511-7.114C76.032 108.104 68.002 99 57 92.038c0 0 .426-3.624 2.392-5.304 1.046-.894 2.526-1.238 4.608-.196 4 2 12 9.166 15.5 12.5 0 0-6.95-8.34-14.216-15.07a89.627 89.627 0 0 0-2.573-2.297 64.038 64.038 0 0 0-2.095-1.724A41.765 41.765 0 0 0 58 78.037a.981.981 0 0 0 .013-.033c.127-.324 1.145-2.935 2.986-4.466a5.792 5.792 0 0 1 .556-.409c1.194-.771 2.681-1.041 4.445-.091 5.2 2.8 20.5 18.5 20.5 18.5S77.694 79.67 67.453 70.34A84.897 84.897 0 0 0 63 66.54l.03-.08c.192-.498 1.308-3.183 3.515-4.398.092-.05.186-.098.282-.144 1.066-.503 2.368-.657 3.922-.098a8.462 8.462 0 0 1 1.492.721c.248.149.5.315.759.5.458.327 1.162.935 2.04 1.744C80.795 70.091 94 84.038 94 84.038L76.5 63.539s.521-2.223 2.177-3.558c1.154-.93 2.86-1.429 5.323-.443 2.772 1.109 6.403 5.25 10.936 10.421 2.992 3.414 6.377 7.275 10.167 11.009 2.177 2.144 4.488 4.245 6.934 6.196a68.62 68.62 0 0 0 2.386 1.818ZM73.636 56.517c1.139-1.258 2.813-2.55 5.114-3.164 2.458-.655 5.012-.373 7.478.614 2.801 1.12 5.33 3.482 7.314 5.514 1.831 1.874 3.852 4.18 5.927 6.548l1.081 1.232a278.871 278.871 0 0 0 4.053 4.53 12.934 12.934 0 0 1 1.014-3.158c1.33-2.807 3.471-4.533 5.589-5.495 2.008-.913 3.952-1.131 5.242-1.168a14.952 14.952 0 0 1 2.218.103 10.42 10.42 0 0 1 .263.037l.032.005.014.002.007.002c.003 0 .006 0-.98 5.919l.986-5.918a6 6 0 0 1 4.871 4.617c1.624 7.312 5.439 16.33 7.787 21.877.33.78.631 1.49.892 2.119 1.374 3.297 3.211 8.422 2.555 14.739-.669 6.435-3.824 13.282-10.85 20.308-11.259 11.259-29.556 10.93-39.486 1-2.03-2.029-4.15-4.421-6.308-6.866l-.45-.509c-2.058-2.334-4.204-4.767-6.545-7.25-5.01-5.313-10.744-10.669-17.662-15.047a6 6 0 0 1-2.75-5.772l5.958.702c-5.959-.701-5.959-.704-5.958-.706v-.004l.001-.01.003-.022.007-.055a11.953 11.953 0 0 1 .089-.582c.06-.347.151-.815.287-1.358.258-1.03.735-2.581 1.611-4.115.378-.661.897-1.434 1.591-2.184a6 6 0 0 1-2.19-7.222l.011-.03a20.199 20.199 0 0 1 .705-1.574c.467-.93 1.223-2.267 2.31-3.555a13.433 13.433 0 0 1 1.944-1.897 5.995 5.995 0 0 1-.069-4.18l5.482 1.935c-5.482-1.935-5.481-1.938-5.48-1.94l.002-.006.004-.011.009-.026.022-.06a10.644 10.644 0 0 1 .25-.62c.155-.362.378-.843.675-1.39.569-1.047 1.532-2.565 3-3.92 1.5-1.385 3.752-2.79 6.735-3.011 1.938-.144 3.816.24 5.595 1.022ZM52.42 75.833a.22.22 0 0 1 .002-.004Z" clip-rule="evenodd"/>
    </g>

</svg>
